<?xml version="1.0" encoding="UTF-8"?>
<svg xmlns="http://www.w3.org/2000/svg" xmlns:xlink="http://www.w3.org/1999/xlink" viewBox="0 0 96 96" width="96px" height="96px">
<g id="surface21390059">
<path style=" stroke:none;fill-rule:nonzero;fill:rgb(34.901962%,49.019608%,90.980393%);fill-opacity:1;" d="M 37.78125 64 L 42 64 L 42 80 C 42 82.199219 40.199219 84 38 84 L 30 84 C 27.800781 84 26 82.199219 26 80 L 26 64 L 9.78125 64 C 6.738281 64 4.820312 60.71875 6.28125 58.058594 L 30.5 14.320312 C 32.019531 11.578125 35.980469 11.578125 37.5 14.320312 L 47.199219 33.800781 L 34.28125 58.058594 C 32.820312 60.71875 34.738281 64 37.78125 64 Z M 37.78125 64 "/>
<path style=" stroke:none;fill-rule:nonzero;fill:rgb(34.901962%,49.019608%,90.980393%);fill-opacity:1;" d="M 86.21875 64 L 70 64 L 70 80 C 70 82.199219 68.199219 84 66 84 L 58 84 C 55.800781 84 54 82.199219 54 80 L 54 64 L 58.21875 64 C 61.261719 64 63.179688 60.71875 61.71875 58.058594 L 48.601562 33.800781 L 58.5 14.320312 C 60.019531 11.578125 63.980469 11.578125 65.5 14.320312 L 89.71875 58.058594 C 91.179688 60.71875 89.261719 64 86.21875 64 Z M 86.21875 64 "/>
</g>
</svg>
